<svg xmlns="http://www.w3.org/2000/svg" version="1.1" viewBox="-5.0 -10.0 110.0 135.0" color="#00008B" fill="#00008B" stroke="#00008B" stroke-width="1.5" class="h-12 w-12">
 <path d="m71.66 87.262c1.8398-3.7383 2.3711-7.6016 1.5781-11.48-0.64062-3.1289-2.1406-6.2617-4.4492-9.3008-2.9102-3.8281-6.3398-6.5195-7.9688-7.6914 1.0898-1.5781 1.4883-3.2188 1.1797-4.8906-0.73047-3.9609-5.1406-6.4805-6.0195-6.9414-5.5-2.9102-8.6797-5.9297-9.4297-8.9805-0.42188-1.6797-0.51172-2.6602-0.5-3.2109 1.6719 0.76953 3.3984 1.1992 4.5391 1.4297 0.21094 0.039063 0.42188 0.058594 0.62891 0.058594 0.85156 0 1.6719-0.32812 2.2695-0.94141 1.2617-1.2695 2.4492-3.2188 2.9688-4.1094l1.9609-0.26172c0.51172-0.070312 0.89844-0.5 0.89844-1.0195v-4.4805c2.1289-2.6719 2.2188-5.5508 2.0703-7.0898 0.019531-0.070312 0.039062-0.14844 0.039062-0.23047 0.16016-2.1406-0.64062-4.7109-2.1602-6.8789-1.7305-2.4688-4.2188-4.2188-7.0117-4.9102-4.7305-1.1719-8.1992 0.96875-9.6289 2.1016-1.1484-0.82031-3.5-2.1797-6.0391-1.7109-2.0781 0.39062-3.7812 1.8711-5.0508 4.4219-1.3906 2.7891-1.6094 5.1484-0.62891 7.0117 0.94922 1.8203 2.7812 2.6211 3.8711 2.9492 0.011718 0.17969 0.03125 0.37891 0.039062 0.58984 0.10938 1.4219 0.26953 3.5508-0.35156 5.4102-0.53125 0.87891-4.5 7.4102-5.4297 8.8281-0.019531 0.019531-0.03125 0.050781-0.039062 0.070312-0.32031 0.35938-0.60156 0.75-0.83984 1.1719-1.0391 1.8203-1.6016 4.3398-1.7383 7.9297-0.21094 5.0117 1.3594 15.711 2.2891 22.102 0.21094 1.4414 0.39062 2.6797 0.5 3.4883 0.19141 1.4609 1.0703 2.7695 2.3594 3.5l5.2188 2.9609c-1.7383 2.0508-3.1914 4.9219-4.3398 8.5586-0.98047 3.1289-1.4609 6.0312-1.5781 7.1289-0.058594 0.57031 0.35156 1.0703 0.92187 1.1406h0.10938c0.51953 0 0.96875-0.39062 1.0195-0.92188 0-0.03125 0.32812-3.0117 1.5-6.7305 1.1016-3.5117 2.5508-6.3086 4.1992-8.1406l14.602 8.2812c0.28125 0.16016 0.55078 0.33984 0.80078 0.53906 2.3906 1.9297 6.5312 5.2812 7.4492 6.0195 1.0586 0.85156 3.0117 0.94141 3.7891 0.94141 0.78125 0 2.75-0.089844 3.7617-0.96875 0.51953-0.44922 1.2617-1.3594 2.2695-2.7695 0.53125-0.75 0.71094-1.6914 0.5-2.5781-0.03125-0.14062-0.078124-0.28125-0.12891-0.41016zm-2.0508 1.7969c-1.1797 1.6602-1.7188 2.2188-1.9414 2.4102-0.21094 0.17969-1.0391 0.46094-2.3984 0.46094-1.2383 0-2.1992-0.25-2.5-0.48828-0.92188-0.73828-5.0586-4.0781-7.4414-6.0117-0.33984-0.26953-0.69922-0.51953-1.0781-0.73047l-15.301-8.6797-6.3516-3.6016c-0.73047-0.41016-1.2188-1.1484-1.3281-1.9805-0.10938-0.82031-0.28125-2.0195-0.5-3.5195-0.85938-5.9102-2.4688-16.898-2.2695-21.719 0.12891-3.1992 0.60938-5.4883 1.4688-6.9883 0.69141-1.2109 1.8789-2.0703 3.25-2.3711 1.3594-0.28906 2.7695 0.011718 3.8789 0.82031 0.21875 0.16016 0.41016 0.33984 0.57031 0.51953 0.37109 0.42969 1.0195 0.48047 1.4609 0.10156 0.42969-0.37109 0.48047-1.0312 0.10156-1.4609-0.26172-0.30078-0.57031-0.57812-0.91016-0.82812-1.5703-1.1484-3.5703-1.5781-5.5-1.1797 1.5586-2.5391 3.3789-5.5391 3.5-5.7383v-0.011719c0.011719-0.019531 0.019532-0.039062 0.03125-0.058594 0 0 0-0.019531 0.011719-0.03125 0-0.019531 0.019531-0.039062 0.03125-0.058594 0 0 0-0.019531 0.011719-0.03125 0.80078-2.2812 0.60938-4.8281 0.48828-6.3398-0.03125-0.39844-0.070312-0.91016-0.050781-1.0586 0.050781-0.26953 0-0.55859-0.17188-0.78906-0.16016-0.23047-0.41016-0.39062-0.69922-0.42969-0.019531 0-2.3398-0.37891-3.2188-2.0703-0.64844-1.2383-0.42969-2.9688 0.64844-5.1289 0.96875-1.9414 2.1719-3.0508 3.5703-3.3203 2.4805-0.46875 4.9805 1.7617 5.0117 1.7812 0.41016 0.37891 1.0508 0.35938 1.4297-0.039063 0 0 0.87109-0.87109 2.3398-1.5703 1.9219-0.89844 3.9492-1.1016 6.0195-0.58984 2.3086 0.57031 4.3711 2.0312 5.8203 4.0898 0.96875 1.3906 1.6016 3.0117 1.7695 4.4414-2.5586 1.9883-9.0898 2.1719-11.449 2.0703h-0.050781-0.69141c-0.35938-0.80078-1.0508-1.7109-2.2188-2.0312-2.5586-0.71094-4.4883 0.19141-5.3086 2.4805-0.69922 1.9609-0.41016 3.8086 0.85938 5.5117 0.33984 0.46094 0.98828 0.55078 1.4414 0.21094 0.46094-0.33984 0.55078-0.98828 0.21094-1.4414-0.85156-1.1406-1.0391-2.2812-0.57031-3.5781 0.32031-0.89062 0.89844-1.7188 2.8203-1.1914 0.76172 0.21094 1 1.1992 1.0195 1.2812 0.089844 0.48828 0.51172 0.82812 1.0117 0.82812h1.4102c0.26953 0.011719 2.4688 0.089844 5.0703-0.16016 2.7383-0.26953 4.9102-0.78906 6.4805-1.5703 0.019531 1.3203-0.28906 3.3008-1.8711 5.1289-0.16016 0.19141-0.25 0.42969-0.25 0.67187v3.9492l-1.5703 0.21094c-0.32812 0.039062-0.62109 0.23828-0.76953 0.53125-0.011719 0.03125-1.4414 2.6602-2.8789 4.1016-0.26953 0.26953-0.66016 0.37891-1.0391 0.30859-1.3711-0.26953-4.7617-1.0898-6.6406-2.9688-0.39844-0.39844-1.0586-0.39844-1.4609 0-0.39844 0.39844-0.39844 1.0586 0 1.4609 0.37891 0.37891 0.78906 0.71094 1.2305 1.0195-0.35156 1.3203 0.050781 3.3008 0.42187 4.7891 0.57031 2.2891 2.1602 4.5117 4.75 6.6289 2.0391 1.6602 4.2383 2.8984 5.7188 3.6797 0.5 0.26172 1.7891 1 2.9688 2.1719 1.1094 1.1016 1.7812 2.2109 1.9805 3.3203 0.25 1.3711-0.21094 2.6992-1.4219 4.0703-0.19922 0.23047-0.28906 0.53125-0.25 0.82812 0.039063 0.30078 0.21094 0.55859 0.46875 0.71875 0.050782 0.03125 4.6992 3.0117 8.3711 7.8398 2.1211 2.7891 3.4883 5.6406 4.0703 8.4609 0.64844 3.1602 0.28906 6.3203-1.0586 9.4102-0.28906-0.14844-0.53906-0.35937-0.75-0.62109-1.4102-1.8008-1.6914-2.2383-1.7305-2.3203-0.28906-0.64844-1.0391-0.71875-1.5312-0.76172-0.39844-0.03125-0.94922-0.058594-1.6406-0.070313-1.2617-0.019531-2.8086 0-3.8789 0.019531-0.82031 0.019532-1.6289-0.26172-2.2695-0.76953-4.2305-3.3594-14.16-11.031-18.879-13.031 0.37109-3.5312 1.6289-15.789 1.2695-18.5-0.078124-0.55859-0.60156-0.96094-1.1602-0.87891-0.55859 0.078125-0.96094 0.60156-0.87891 1.1602 0.30859 2.3203-0.87109 14.352-1.3594 18.789-0.050781 0.48828 0.25 0.94922 0.71875 1.1016 1.1719 0.37109 3.7695 1.6719 9.5195 5.7812 3.8086 2.7305 7.5781 5.6797 9.4883 7.1914 1.0195 0.80859 2.3008 1.2383 3.6016 1.2109 3.5508-0.070313 4.8984 0 5.3906 0.050781 0.25 0.37109 0.73828 1.0312 1.7188 2.2891 0.39062 0.5 0.87109 0.89844 1.4297 1.1797 0.28906 0.14844 0.48828 0.39844 0.57031 0.71875 0.078125 0.32031 0.019531 0.62891-0.17188 0.89844z"/>
</svg>